<svg xmlns="http://www.w3.org/2000/svg" width="1600" height="900" viewBox="0 0 1600 900" role="img" aria-label="top four race ladder scenarios 2026">
  <defs>
    <linearGradient id="bg" gradientTransform="rotate(159 0.5 0.5)">
      <stop offset="0%" stop-color="#12305B"/>
      <stop offset="55%" stop-color="#0B1F3A"/>
      <stop offset="100%" stop-color="#081527"/>
    </linearGradient>
    <radialGradient id="glow" cx="0.75" cy="0.12" r="0.75">
      <stop offset="0%" stop-color="#E4404A" stop-opacity="0.28"/>
      <stop offset="55%" stop-color="#E4404A" stop-opacity="0.05"/>
      <stop offset="100%" stop-color="#E4404A" stop-opacity="0"/>
    </radialGradient>
    <linearGradient id="beam" x1="0" y1="0" x2="1" y2="1">
      <stop offset="0%" stop-color="#F0B429" stop-opacity="0.07"/>
      <stop offset="100%" stop-color="#F0B429" stop-opacity="0"/>
    </linearGradient>
    <filter id="grain">
      <feTurbulence type="fractalNoise" baseFrequency="0.9" numOctaves="2" stitchTiles="stitch"/>
      <feColorMatrix type="matrix" values="0 0 0 0 1  0 0 0 0 1  0 0 0 0 1  0 0 0 0.05 0"/>
    </filter>
  </defs>
  <rect width="1600" height="900" fill="url(#bg)"/>
  <rect width="1600" height="900" fill="url(#glow)"/>
  <g stroke="#33507E" stroke-width="1" opacity="0.28"><line x1="0" y1="0" x2="0" y2="900"/><line x1="80" y1="0" x2="80" y2="900"/><line x1="160" y1="0" x2="160" y2="900"/><line x1="240" y1="0" x2="240" y2="900"/><line x1="320" y1="0" x2="320" y2="900"/><line x1="400" y1="0" x2="400" y2="900"/><line x1="480" y1="0" x2="480" y2="900"/><line x1="560" y1="0" x2="560" y2="900"/><line x1="640" y1="0" x2="640" y2="900"/><line x1="720" y1="0" x2="720" y2="900"/><line x1="800" y1="0" x2="800" y2="900"/><line x1="880" y1="0" x2="880" y2="900"/><line x1="960" y1="0" x2="960" y2="900"/><line x1="1040" y1="0" x2="1040" y2="900"/><line x1="1120" y1="0" x2="1120" y2="900"/><line x1="1200" y1="0" x2="1200" y2="900"/><line x1="1280" y1="0" x2="1280" y2="900"/><line x1="1360" y1="0" x2="1360" y2="900"/><line x1="1440" y1="0" x2="1440" y2="900"/><line x1="1520" y1="0" x2="1520" y2="900"/><line x1="1600" y1="0" x2="1600" y2="900"/><line x1="0" y1="0" x2="1600" y2="0"/><line x1="0" y1="80" x2="1600" y2="80"/><line x1="0" y1="160" x2="1600" y2="160"/><line x1="0" y1="240" x2="1600" y2="240"/><line x1="0" y1="320" x2="1600" y2="320"/><line x1="0" y1="400" x2="1600" y2="400"/><line x1="0" y1="480" x2="1600" y2="480"/><line x1="0" y1="560" x2="1600" y2="560"/><line x1="0" y1="640" x2="1600" y2="640"/><line x1="0" y1="720" x2="1600" y2="720"/><line x1="0" y1="800" x2="1600" y2="800"/><line x1="0" y1="880" x2="1600" y2="880"/></g>
  <polygon points="30,900 490,0 670,0 210,900" fill="url(#beam)"/>
  <g fill="#E4404A" opacity="0.5"><circle cx="262" cy="754" r="2.1"/><circle cx="156" cy="751" r="2.9"/><circle cx="159" cy="747" r="2.9"/><circle cx="270" cy="771" r="2.5"/><circle cx="113" cy="616" r="2.1"/><circle cx="105" cy="653" r="3.4"/><circle cx="-42" cy="729" r="2.8"/><circle cx="38" cy="826" r="1.1"/><circle cx="365" cy="786" r="1.2"/><circle cx="237" cy="652" r="1.7"/><circle cx="125" cy="758" r="1.1"/><circle cx="253" cy="690" r="2.8"/><circle cx="51" cy="678" r="1.9"/><circle cx="193" cy="756" r="2.0"/><circle cx="140" cy="818" r="3.2"/><circle cx="126" cy="709" r="1.1"/><circle cx="95" cy="786" r="1.1"/><circle cx="243" cy="697" r="2.9"/><circle cx="-24" cy="753" r="3.2"/><circle cx="277" cy="698" r="1.8"/><circle cx="177" cy="876" r="2.9"/><circle cx="175" cy="650" r="2.0"/><circle cx="245" cy="815" r="1.5"/><circle cx="301" cy="746" r="2.6"/><circle cx="155" cy="745" r="3.1"/><circle cx="133" cy="717" r="1.6"/><circle cx="183" cy="751" r="3.1"/><circle cx="123" cy="743" r="1.8"/><circle cx="74" cy="637" r="1.8"/><circle cx="265" cy="668" r="1.1"/><circle cx="-14" cy="731" r="3.1"/><circle cx="58" cy="680" r="3.1"/><circle cx="72" cy="863" r="2.8"/><circle cx="281" cy="729" r="3.4"/><circle cx="128" cy="817" r="3.2"/><circle cx="177" cy="660" r="3.2"/><circle cx="-28" cy="719" r="1.1"/><circle cx="144" cy="796" r="2.0"/><circle cx="129" cy="684" r="1.5"/><circle cx="26" cy="720" r="3.0"/><circle cx="0" cy="688" r="2.9"/><circle cx="4" cy="694" r="3.1"/><circle cx="35" cy="833" r="2.0"/><circle cx="164" cy="841" r="2.9"/><circle cx="54" cy="772" r="1.7"/><circle cx="-31" cy="681" r="1.4"/><circle cx="146" cy="874" r="2.3"/><circle cx="3" cy="836" r="1.4"/><circle cx="86" cy="754" r="2.1"/><circle cx="89" cy="714" r="3.3"/><circle cx="2" cy="806" r="1.5"/><circle cx="191" cy="616" r="2.4"/><circle cx="194" cy="752" r="2.1"/><circle cx="190" cy="741" r="2.1"/><circle cx="337" cy="697" r="1.7"/><circle cx="227" cy="765" r="1.2"/><circle cx="281" cy="639" r="2.3"/><circle cx="189" cy="739" r="2.6"/><circle cx="150" cy="862" r="2.5"/><circle cx="-33" cy="696" r="2.6"/><circle cx="127" cy="778" r="3.2"/><circle cx="166" cy="691" r="1.9"/><circle cx="264" cy="736" r="2.4"/><circle cx="203" cy="751" r="3.1"/><circle cx="234" cy="761" r="3.0"/><circle cx="253" cy="717" r="3.3"/><circle cx="213" cy="744" r="2.5"/><circle cx="34" cy="684" r="2.5"/><circle cx="176" cy="726" r="2.5"/><circle cx="104" cy="735" r="1.1"/><circle cx="381" cy="770" r="2.9"/><circle cx="72" cy="666" r="1.3"/><circle cx="132" cy="741" r="3.3"/><circle cx="53" cy="800" r="1.6"/><circle cx="309" cy="730" r="3.3"/><circle cx="118" cy="774" r="2.2"/><circle cx="131" cy="735" r="1.3"/><circle cx="89" cy="730" r="2.2"/><circle cx="248" cy="651" r="3.0"/><circle cx="68" cy="756" r="2.5"/><circle cx="161" cy="744" r="2.0"/><circle cx="130" cy="744" r="1.7"/><circle cx="-14" cy="688" r="2.0"/><circle cx="143" cy="718" r="1.6"/><circle cx="131" cy="682" r="2.9"/><circle cx="120" cy="841" r="2.5"/><circle cx="205" cy="799" r="1.5"/><circle cx="47" cy="805" r="1.1"/><circle cx="163" cy="730" r="3.2"/><circle cx="224" cy="707" r="2.5"/></g>
  <g transform="translate(914.6417602128349 104) scale(1.40) rotate(6 200 200)" opacity="0.85">
    
      <g fill="none" stroke="#33507E" stroke-width="7">
        <ellipse cx="200" cy="230" rx="185" ry="118"/>
        <ellipse cx="200" cy="230" rx="90" ry="55" opacity="0.6"/>
        <circle cx="200" cy="230" r="6" fill="#33507E"/>
      </g>
      <g stroke="#E4404A" stroke-width="10" stroke-linecap="round">
        <line x1="150" y1="40" x2="150" y2="140"/>
        <line x1="250" y1="40" x2="250" y2="140"/>
        <line x1="105" y1="70" x2="105" y2="140" opacity="0.7"/>
        <line x1="295" y1="70" x2="295" y2="140" opacity="0.7"/>
      </g>
  </g>
  <rect x="0" y="852" width="1600" height="48" fill="#081527" opacity="0.65"/>
  <rect x="0" y="852" width="420" height="6" fill="#E4404A"/>
  <rect width="1600" height="900" filter="url(#grain)"/>
</svg>