<svg xmlns="http://www.w3.org/2000/svg" width="1600" height="900" viewBox="0 0 1600 900" role="img" aria-label="afl finals system explained">
  <defs>
    <linearGradient id="bg" gradientTransform="rotate(252 0.5 0.5)">
      <stop offset="0%" stop-color="#1156D6"/>
      <stop offset="55%" stop-color="#0F2A66"/>
      <stop offset="100%" stop-color="#0A1B42"/>
    </linearGradient>
    <radialGradient id="glow" cx="0.73" cy="0.14" r="0.75">
      <stop offset="0%" stop-color="#5B9BFF" stop-opacity="0.28"/>
      <stop offset="55%" stop-color="#5B9BFF" stop-opacity="0.05"/>
      <stop offset="100%" stop-color="#5B9BFF" stop-opacity="0"/>
    </radialGradient>
    <linearGradient id="beam" x1="0" y1="0" x2="1" y2="1">
      <stop offset="0%" stop-color="#9BE8C6" stop-opacity="0.07"/>
      <stop offset="100%" stop-color="#9BE8C6" stop-opacity="0"/>
    </linearGradient>
    <filter id="grain">
      <feTurbulence type="fractalNoise" baseFrequency="0.9" numOctaves="2" stitchTiles="stitch"/>
      <feColorMatrix type="matrix" values="0 0 0 0 1  0 0 0 0 1  0 0 0 0 1  0 0 0 0.05 0"/>
    </filter>
  </defs>
  <rect width="1600" height="900" fill="url(#bg)"/>
  <rect width="1600" height="900" fill="url(#glow)"/>
  <g stroke="#2C4E9E" stroke-width="1" opacity="0.28"><line x1="0" y1="0" x2="0" y2="900"/><line x1="80" y1="0" x2="80" y2="900"/><line x1="160" y1="0" x2="160" y2="900"/><line x1="240" y1="0" x2="240" y2="900"/><line x1="320" y1="0" x2="320" y2="900"/><line x1="400" y1="0" x2="400" y2="900"/><line x1="480" y1="0" x2="480" y2="900"/><line x1="560" y1="0" x2="560" y2="900"/><line x1="640" y1="0" x2="640" y2="900"/><line x1="720" y1="0" x2="720" y2="900"/><line x1="800" y1="0" x2="800" y2="900"/><line x1="880" y1="0" x2="880" y2="900"/><line x1="960" y1="0" x2="960" y2="900"/><line x1="1040" y1="0" x2="1040" y2="900"/><line x1="1120" y1="0" x2="1120" y2="900"/><line x1="1200" y1="0" x2="1200" y2="900"/><line x1="1280" y1="0" x2="1280" y2="900"/><line x1="1360" y1="0" x2="1360" y2="900"/><line x1="1440" y1="0" x2="1440" y2="900"/><line x1="1520" y1="0" x2="1520" y2="900"/><line x1="1600" y1="0" x2="1600" y2="900"/><line x1="0" y1="0" x2="1600" y2="0"/><line x1="0" y1="80" x2="1600" y2="80"/><line x1="0" y1="160" x2="1600" y2="160"/><line x1="0" y1="240" x2="1600" y2="240"/><line x1="0" y1="320" x2="1600" y2="320"/><line x1="0" y1="400" x2="1600" y2="400"/><line x1="0" y1="480" x2="1600" y2="480"/><line x1="0" y1="560" x2="1600" y2="560"/><line x1="0" y1="640" x2="1600" y2="640"/><line x1="0" y1="720" x2="1600" y2="720"/><line x1="0" y1="800" x2="1600" y2="800"/><line x1="0" y1="880" x2="1600" y2="880"/></g>
  <polygon points="426,900 886,0 1066,0 606,900" fill="url(#beam)"/>
  <g fill="#5B9BFF" opacity="0.5"><circle cx="83" cy="585" r="2.3"/><circle cx="168" cy="648" r="1.9"/><circle cx="326" cy="513" r="2.0"/><circle cx="168" cy="622" r="2.9"/><circle cx="103" cy="630" r="3.1"/><circle cx="205" cy="465" r="3.3"/><circle cx="107" cy="628" r="3.2"/><circle cx="303" cy="543" r="2.7"/><circle cx="17" cy="614" r="3.3"/><circle cx="312" cy="539" r="1.9"/><circle cx="321" cy="527" r="1.3"/><circle cx="245" cy="630" r="3.0"/><circle cx="153" cy="549" r="2.3"/><circle cx="207" cy="535" r="2.0"/><circle cx="245" cy="592" r="2.2"/><circle cx="115" cy="656" r="2.8"/><circle cx="129" cy="487" r="2.4"/><circle cx="358" cy="607" r="1.8"/><circle cx="300" cy="617" r="3.4"/><circle cx="366" cy="635" r="1.1"/><circle cx="239" cy="593" r="3.2"/><circle cx="298" cy="614" r="2.9"/><circle cx="181" cy="632" r="1.9"/><circle cx="192" cy="713" r="2.5"/><circle cx="155" cy="502" r="2.1"/><circle cx="352" cy="662" r="2.9"/><circle cx="89" cy="531" r="2.1"/><circle cx="145" cy="579" r="2.7"/><circle cx="428" cy="565" r="1.8"/><circle cx="120" cy="524" r="3.1"/><circle cx="216" cy="532" r="1.1"/><circle cx="168" cy="685" r="1.5"/><circle cx="153" cy="567" r="2.1"/><circle cx="444" cy="610" r="3.1"/><circle cx="284" cy="546" r="1.2"/><circle cx="362" cy="654" r="3.0"/><circle cx="239" cy="585" r="1.7"/><circle cx="460" cy="567" r="2.2"/><circle cx="205" cy="626" r="1.7"/><circle cx="247" cy="618" r="1.1"/><circle cx="221" cy="596" r="3.4"/><circle cx="220" cy="604" r="2.2"/><circle cx="334" cy="528" r="2.3"/><circle cx="310" cy="493" r="1.3"/><circle cx="208" cy="691" r="1.4"/><circle cx="204" cy="557" r="3.2"/><circle cx="401" cy="538" r="2.8"/><circle cx="89" cy="639" r="2.0"/><circle cx="81" cy="493" r="2.6"/><circle cx="440" cy="590" r="2.1"/><circle cx="74" cy="531" r="2.5"/><circle cx="233" cy="579" r="1.5"/><circle cx="120" cy="640" r="2.5"/><circle cx="277" cy="640" r="1.6"/><circle cx="199" cy="584" r="2.1"/><circle cx="355" cy="561" r="2.4"/><circle cx="362" cy="644" r="3.1"/><circle cx="123" cy="559" r="2.5"/><circle cx="179" cy="457" r="1.2"/><circle cx="393" cy="558" r="1.1"/><circle cx="349" cy="651" r="3.3"/><circle cx="202" cy="493" r="1.3"/><circle cx="206" cy="643" r="2.2"/><circle cx="197" cy="666" r="3.3"/><circle cx="229" cy="581" r="1.5"/><circle cx="309" cy="468" r="2.3"/><circle cx="232" cy="581" r="2.5"/><circle cx="217" cy="575" r="2.0"/><circle cx="152" cy="600" r="1.7"/><circle cx="15" cy="603" r="1.0"/><circle cx="274" cy="461" r="2.5"/><circle cx="195" cy="566" r="1.8"/><circle cx="263" cy="592" r="3.3"/><circle cx="254" cy="610" r="3.0"/><circle cx="213" cy="649" r="2.7"/><circle cx="295" cy="560" r="1.6"/><circle cx="79" cy="499" r="2.4"/><circle cx="294" cy="460" r="2.9"/><circle cx="437" cy="536" r="1.2"/><circle cx="300" cy="499" r="1.7"/><circle cx="194" cy="716" r="2.0"/><circle cx="249" cy="671" r="2.2"/><circle cx="81" cy="575" r="1.1"/><circle cx="364" cy="690" r="2.8"/><circle cx="223" cy="586" r="1.0"/><circle cx="288" cy="510" r="2.6"/><circle cx="119" cy="534" r="2.4"/><circle cx="429" cy="544" r="1.5"/><circle cx="278" cy="587" r="2.3"/><circle cx="395" cy="571" r="1.4"/></g>
  <g transform="translate(890.0799309266731 128) scale(1.43) rotate(5 200 200)" opacity="0.85">
    
      <g>
        <rect x="48" y="250" width="44" height="90" rx="6" fill="#2C4E9E" opacity="0.35"/><rect x="108" y="190" width="44" height="150" rx="6" fill="#2C4E9E" opacity="0.47"/><rect x="168" y="220" width="44" height="120" rx="6" fill="#2C4E9E" opacity="0.59"/><rect x="228" y="130" width="44" height="210" rx="6" fill="#2C4E9E" opacity="0.71"/><rect x="288" y="80" width="44" height="260" rx="6" fill="#2C4E9E" opacity="0.83"/>
        <polyline points="48,250 130,205 190,225 250,140 332,80" fill="none" stroke="#5B9BFF" stroke-width="7" stroke-linecap="round" stroke-linejoin="round"/>
        <circle cx="332" cy="80" r="11" fill="#5B9BFF"/>
      </g>
  </g>
  <rect x="0" y="852" width="1600" height="48" fill="#0A1B42" opacity="0.65"/>
  <rect x="0" y="852" width="420" height="6" fill="#5B9BFF"/>
  <rect width="1600" height="900" filter="url(#grain)"/>
</svg>