<svg xmlns="http://www.w3.org/2000/svg" width="1600" height="900" viewBox="0 0 1600 900" role="img" aria-label="bangladesh darwin first test win in australia">
  <defs>
    <linearGradient id="bg" gradientTransform="rotate(186 0.5 0.5)">
      <stop offset="0%" stop-color="#3A3129"/>
      <stop offset="55%" stop-color="#221E1A"/>
      <stop offset="100%" stop-color="#171310"/>
    </linearGradient>
    <radialGradient id="glow" cx="0.73" cy="0.10" r="0.75">
      <stop offset="0%" stop-color="#C86A3B" stop-opacity="0.28"/>
      <stop offset="55%" stop-color="#C86A3B" stop-opacity="0.05"/>
      <stop offset="100%" stop-color="#C86A3B" stop-opacity="0"/>
    </radialGradient>
    <linearGradient id="beam" x1="0" y1="0" x2="1" y2="1">
      <stop offset="0%" stop-color="#E8D9C0" stop-opacity="0.07"/>
      <stop offset="100%" stop-color="#E8D9C0" stop-opacity="0"/>
    </linearGradient>
    <filter id="grain">
      <feTurbulence type="fractalNoise" baseFrequency="0.9" numOctaves="2" stitchTiles="stitch"/>
      <feColorMatrix type="matrix" values="0 0 0 0 1  0 0 0 0 1  0 0 0 0 1  0 0 0 0.05 0"/>
    </filter>
  </defs>
  <rect width="1600" height="900" fill="url(#bg)"/>
  <rect width="1600" height="900" fill="url(#glow)"/>
  <g stroke="#4A4036" stroke-width="1" opacity="0.28"><line x1="0" y1="0" x2="0" y2="900"/><line x1="80" y1="0" x2="80" y2="900"/><line x1="160" y1="0" x2="160" y2="900"/><line x1="240" y1="0" x2="240" y2="900"/><line x1="320" y1="0" x2="320" y2="900"/><line x1="400" y1="0" x2="400" y2="900"/><line x1="480" y1="0" x2="480" y2="900"/><line x1="560" y1="0" x2="560" y2="900"/><line x1="640" y1="0" x2="640" y2="900"/><line x1="720" y1="0" x2="720" y2="900"/><line x1="800" y1="0" x2="800" y2="900"/><line x1="880" y1="0" x2="880" y2="900"/><line x1="960" y1="0" x2="960" y2="900"/><line x1="1040" y1="0" x2="1040" y2="900"/><line x1="1120" y1="0" x2="1120" y2="900"/><line x1="1200" y1="0" x2="1200" y2="900"/><line x1="1280" y1="0" x2="1280" y2="900"/><line x1="1360" y1="0" x2="1360" y2="900"/><line x1="1440" y1="0" x2="1440" y2="900"/><line x1="1520" y1="0" x2="1520" y2="900"/><line x1="1600" y1="0" x2="1600" y2="900"/><line x1="0" y1="0" x2="1600" y2="0"/><line x1="0" y1="80" x2="1600" y2="80"/><line x1="0" y1="160" x2="1600" y2="160"/><line x1="0" y1="240" x2="1600" y2="240"/><line x1="0" y1="320" x2="1600" y2="320"/><line x1="0" y1="400" x2="1600" y2="400"/><line x1="0" y1="480" x2="1600" y2="480"/><line x1="0" y1="560" x2="1600" y2="560"/><line x1="0" y1="640" x2="1600" y2="640"/><line x1="0" y1="720" x2="1600" y2="720"/><line x1="0" y1="800" x2="1600" y2="800"/><line x1="0" y1="880" x2="1600" y2="880"/></g>
  <polygon points="464,900 924,0 1104,0 644,900" fill="url(#beam)"/>
  <g fill="#C86A3B" opacity="0.5"><circle cx="574" cy="489" r="2.9"/><circle cx="622" cy="624" r="2.9"/><circle cx="468" cy="605" r="2.0"/><circle cx="252" cy="655" r="2.1"/><circle cx="489" cy="569" r="1.1"/><circle cx="455" cy="556" r="1.6"/><circle cx="401" cy="599" r="3.3"/><circle cx="435" cy="629" r="2.2"/><circle cx="574" cy="617" r="2.3"/><circle cx="604" cy="579" r="3.3"/><circle cx="444" cy="574" r="2.9"/><circle cx="472" cy="596" r="1.7"/><circle cx="548" cy="624" r="1.9"/><circle cx="535" cy="699" r="2.5"/><circle cx="264" cy="625" r="1.5"/><circle cx="484" cy="605" r="2.1"/><circle cx="333" cy="556" r="3.4"/><circle cx="565" cy="647" r="2.7"/><circle cx="475" cy="560" r="3.4"/><circle cx="607" cy="569" r="2.2"/><circle cx="264" cy="522" r="3.1"/><circle cx="556" cy="485" r="2.1"/><circle cx="453" cy="590" r="1.3"/><circle cx="249" cy="578" r="2.2"/><circle cx="391" cy="599" r="2.8"/><circle cx="456" cy="594" r="1.1"/><circle cx="571" cy="480" r="2.9"/><circle cx="522" cy="605" r="2.4"/><circle cx="456" cy="553" r="2.7"/><circle cx="372" cy="635" r="3.0"/><circle cx="484" cy="513" r="2.8"/><circle cx="665" cy="605" r="1.3"/><circle cx="480" cy="539" r="1.9"/><circle cx="675" cy="565" r="1.7"/><circle cx="472" cy="572" r="2.8"/><circle cx="503" cy="576" r="2.4"/><circle cx="465" cy="574" r="2.0"/><circle cx="388" cy="553" r="1.0"/><circle cx="273" cy="615" r="1.7"/><circle cx="464" cy="653" r="1.5"/><circle cx="558" cy="585" r="1.5"/><circle cx="445" cy="637" r="2.3"/><circle cx="391" cy="553" r="1.4"/><circle cx="429" cy="504" r="2.0"/><circle cx="583" cy="540" r="1.6"/><circle cx="477" cy="610" r="1.1"/><circle cx="447" cy="709" r="1.6"/><circle cx="611" cy="494" r="2.3"/><circle cx="391" cy="588" r="1.8"/><circle cx="556" cy="574" r="3.2"/><circle cx="446" cy="603" r="1.3"/><circle cx="272" cy="566" r="2.2"/><circle cx="393" cy="620" r="2.1"/><circle cx="397" cy="644" r="3.0"/><circle cx="309" cy="574" r="2.4"/><circle cx="539" cy="516" r="3.1"/><circle cx="371" cy="603" r="1.3"/><circle cx="529" cy="634" r="1.1"/><circle cx="517" cy="521" r="1.6"/><circle cx="594" cy="522" r="1.2"/><circle cx="387" cy="525" r="2.7"/><circle cx="469" cy="577" r="2.6"/><circle cx="291" cy="635" r="1.1"/><circle cx="448" cy="582" r="1.2"/><circle cx="335" cy="687" r="2.1"/><circle cx="396" cy="685" r="2.7"/><circle cx="375" cy="588" r="3.0"/><circle cx="620" cy="615" r="2.1"/><circle cx="454" cy="575" r="1.5"/><circle cx="468" cy="529" r="2.8"/><circle cx="484" cy="718" r="2.1"/><circle cx="428" cy="517" r="1.4"/><circle cx="408" cy="603" r="2.1"/><circle cx="389" cy="568" r="2.2"/><circle cx="449" cy="582" r="1.7"/><circle cx="327" cy="596" r="2.1"/><circle cx="354" cy="678" r="1.3"/><circle cx="427" cy="558" r="2.5"/><circle cx="572" cy="539" r="2.0"/><circle cx="405" cy="570" r="2.9"/><circle cx="276" cy="508" r="1.8"/><circle cx="432" cy="556" r="1.2"/><circle cx="444" cy="583" r="2.2"/><circle cx="470" cy="528" r="3.4"/><circle cx="406" cy="591" r="3.1"/><circle cx="663" cy="591" r="3.0"/><circle cx="461" cy="569" r="2.2"/><circle cx="451" cy="596" r="2.9"/><circle cx="429" cy="582" r="1.1"/><circle cx="411" cy="606" r="1.5"/></g>
  <g transform="translate(869.873053450603 90) scale(1.46) rotate(5 200 200)" opacity="0.85">
    
      <g fill="#4A4036">
        <path d="M 60 120 q -40 60 -20 130 l 80 0 q -5 -55 15 -95 l -35 -55 z"/>
        <path d="M 200 120 q -40 60 -20 130 l 80 0 q -5 -55 15 -95 l -35 -55 z"/>
      </g>
      <line x1="60" y1="310" x2="340" y2="310" stroke="#C86A3B" stroke-width="6" stroke-linecap="round"/>
  </g>
  <rect x="0" y="852" width="1600" height="48" fill="#171310" opacity="0.65"/>
  <rect x="0" y="852" width="420" height="6" fill="#C86A3B"/>
  <rect width="1600" height="900" filter="url(#grain)"/>
</svg>