<svg xmlns="http://www.w3.org/2000/svg" width="1600" height="900" viewBox="0 0 1600 900" role="img" aria-label="the 8000 dollar fairytale spicy martini">
  <defs>
    <linearGradient id="bg" gradientTransform="rotate(237 0.5 0.5)">
      <stop offset="0%" stop-color="#3A3129"/>
      <stop offset="55%" stop-color="#221E1A"/>
      <stop offset="100%" stop-color="#171310"/>
    </linearGradient>
    <radialGradient id="glow" cx="0.75" cy="0.10" r="0.75">
      <stop offset="0%" stop-color="#C86A3B" stop-opacity="0.28"/>
      <stop offset="55%" stop-color="#C86A3B" stop-opacity="0.05"/>
      <stop offset="100%" stop-color="#C86A3B" stop-opacity="0"/>
    </radialGradient>
    <linearGradient id="beam" x1="0" y1="0" x2="1" y2="1">
      <stop offset="0%" stop-color="#E8D9C0" stop-opacity="0.07"/>
      <stop offset="100%" stop-color="#E8D9C0" stop-opacity="0"/>
    </linearGradient>
    <filter id="grain">
      <feTurbulence type="fractalNoise" baseFrequency="0.9" numOctaves="2" stitchTiles="stitch"/>
      <feColorMatrix type="matrix" values="0 0 0 0 1  0 0 0 0 1  0 0 0 0 1  0 0 0 0.05 0"/>
    </filter>
  </defs>
  <rect width="1600" height="900" fill="url(#bg)"/>
  <rect width="1600" height="900" fill="url(#glow)"/>
  <g stroke="#4A4036" stroke-width="1" opacity="0.28"><line x1="0" y1="0" x2="0" y2="900"/><line x1="80" y1="0" x2="80" y2="900"/><line x1="160" y1="0" x2="160" y2="900"/><line x1="240" y1="0" x2="240" y2="900"/><line x1="320" y1="0" x2="320" y2="900"/><line x1="400" y1="0" x2="400" y2="900"/><line x1="480" y1="0" x2="480" y2="900"/><line x1="560" y1="0" x2="560" y2="900"/><line x1="640" y1="0" x2="640" y2="900"/><line x1="720" y1="0" x2="720" y2="900"/><line x1="800" y1="0" x2="800" y2="900"/><line x1="880" y1="0" x2="880" y2="900"/><line x1="960" y1="0" x2="960" y2="900"/><line x1="1040" y1="0" x2="1040" y2="900"/><line x1="1120" y1="0" x2="1120" y2="900"/><line x1="1200" y1="0" x2="1200" y2="900"/><line x1="1280" y1="0" x2="1280" y2="900"/><line x1="1360" y1="0" x2="1360" y2="900"/><line x1="1440" y1="0" x2="1440" y2="900"/><line x1="1520" y1="0" x2="1520" y2="900"/><line x1="1600" y1="0" x2="1600" y2="900"/><line x1="0" y1="0" x2="1600" y2="0"/><line x1="0" y1="80" x2="1600" y2="80"/><line x1="0" y1="160" x2="1600" y2="160"/><line x1="0" y1="240" x2="1600" y2="240"/><line x1="0" y1="320" x2="1600" y2="320"/><line x1="0" y1="400" x2="1600" y2="400"/><line x1="0" y1="480" x2="1600" y2="480"/><line x1="0" y1="560" x2="1600" y2="560"/><line x1="0" y1="640" x2="1600" y2="640"/><line x1="0" y1="720" x2="1600" y2="720"/><line x1="0" y1="800" x2="1600" y2="800"/><line x1="0" y1="880" x2="1600" y2="880"/></g>
  <polygon points="204,900 664,0 844,0 384,900" fill="url(#beam)"/>
  <g fill="#C86A3B" opacity="0.5"><circle cx="543" cy="740" r="1.9"/><circle cx="641" cy="748" r="2.5"/><circle cx="605" cy="766" r="2.6"/><circle cx="438" cy="729" r="3.1"/><circle cx="527" cy="718" r="2.0"/><circle cx="287" cy="724" r="3.2"/><circle cx="654" cy="728" r="1.7"/><circle cx="391" cy="679" r="2.8"/><circle cx="592" cy="654" r="2.9"/><circle cx="241" cy="764" r="2.8"/><circle cx="360" cy="718" r="3.3"/><circle cx="437" cy="861" r="2.4"/><circle cx="441" cy="734" r="2.5"/><circle cx="404" cy="817" r="1.5"/><circle cx="448" cy="762" r="2.8"/><circle cx="478" cy="695" r="2.0"/><circle cx="495" cy="778" r="1.1"/><circle cx="479" cy="721" r="1.3"/><circle cx="478" cy="874" r="2.8"/><circle cx="490" cy="801" r="1.3"/><circle cx="506" cy="730" r="2.1"/><circle cx="478" cy="759" r="3.4"/><circle cx="456" cy="733" r="3.3"/><circle cx="355" cy="662" r="1.0"/><circle cx="336" cy="844" r="2.2"/><circle cx="329" cy="648" r="1.8"/><circle cx="487" cy="769" r="1.0"/><circle cx="371" cy="787" r="3.1"/><circle cx="492" cy="755" r="2.2"/><circle cx="465" cy="786" r="3.3"/><circle cx="543" cy="712" r="1.8"/><circle cx="466" cy="833" r="2.2"/><circle cx="559" cy="685" r="1.2"/><circle cx="434" cy="854" r="3.1"/><circle cx="653" cy="780" r="2.7"/><circle cx="493" cy="854" r="3.0"/><circle cx="553" cy="790" r="1.9"/><circle cx="466" cy="740" r="1.2"/><circle cx="295" cy="719" r="2.9"/><circle cx="321" cy="658" r="1.9"/><circle cx="362" cy="825" r="1.7"/><circle cx="348" cy="647" r="1.7"/><circle cx="384" cy="860" r="2.5"/><circle cx="441" cy="713" r="3.2"/><circle cx="442" cy="795" r="1.9"/><circle cx="408" cy="707" r="1.3"/><circle cx="375" cy="778" r="1.2"/><circle cx="250" cy="723" r="2.6"/><circle cx="553" cy="857" r="2.4"/><circle cx="326" cy="642" r="3.1"/><circle cx="311" cy="725" r="1.2"/><circle cx="481" cy="719" r="3.2"/><circle cx="601" cy="640" r="2.8"/><circle cx="510" cy="816" r="3.0"/><circle cx="527" cy="789" r="3.0"/><circle cx="359" cy="816" r="2.3"/><circle cx="508" cy="750" r="1.0"/><circle cx="424" cy="682" r="1.1"/><circle cx="469" cy="671" r="1.1"/><circle cx="464" cy="731" r="2.0"/><circle cx="491" cy="707" r="1.0"/><circle cx="476" cy="746" r="3.0"/><circle cx="427" cy="735" r="2.0"/><circle cx="413" cy="729" r="2.4"/><circle cx="465" cy="740" r="2.4"/><circle cx="349" cy="840" r="1.9"/><circle cx="574" cy="776" r="2.2"/><circle cx="293" cy="814" r="3.0"/><circle cx="670" cy="749" r="3.1"/><circle cx="478" cy="775" r="1.3"/><circle cx="679" cy="743" r="2.0"/><circle cx="596" cy="677" r="1.3"/><circle cx="330" cy="660" r="3.4"/><circle cx="473" cy="735" r="3.1"/><circle cx="474" cy="707" r="1.1"/><circle cx="450" cy="754" r="1.9"/><circle cx="329" cy="779" r="2.4"/><circle cx="513" cy="715" r="1.6"/><circle cx="531" cy="824" r="3.4"/><circle cx="472" cy="666" r="3.2"/><circle cx="466" cy="745" r="2.1"/><circle cx="628" cy="677" r="3.2"/><circle cx="464" cy="741" r="3.3"/><circle cx="622" cy="745" r="1.7"/><circle cx="468" cy="742" r="1.5"/><circle cx="266" cy="723" r="2.1"/><circle cx="470" cy="743" r="1.9"/><circle cx="484" cy="670" r="2.9"/><circle cx="466" cy="739" r="1.4"/><circle cx="489" cy="861" r="1.2"/></g>
  <g transform="translate(871.5720473779365 88) scale(1.62) rotate(-7 200 200)" opacity="0.85">
    
      <g fill="#4A4036">
        <path d="M 60 120 q -40 60 -20 130 l 80 0 q -5 -55 15 -95 l -35 -55 z"/>
        <path d="M 200 120 q -40 60 -20 130 l 80 0 q -5 -55 15 -95 l -35 -55 z"/>
      </g>
      <line x1="60" y1="310" x2="340" y2="310" stroke="#C86A3B" stroke-width="6" stroke-linecap="round"/>
  </g>
  <rect x="0" y="852" width="1600" height="48" fill="#171310" opacity="0.65"/>
  <rect x="0" y="852" width="420" height="6" fill="#C86A3B"/>
  <rect width="1600" height="900" filter="url(#grain)"/>
</svg>