<svg xmlns="http://www.w3.org/2000/svg" width="1600" height="900" viewBox="0 0 1600 900" role="img" aria-label="_default">
  <defs>
    <linearGradient id="bg" gradientTransform="rotate(317 0.5 0.5)">
      <stop offset="0%" stop-color="#155940"/>
      <stop offset="55%" stop-color="#0E3B2A"/>
      <stop offset="100%" stop-color="#092619"/>
    </linearGradient>
    <radialGradient id="glow" cx="0.71" cy="0.08" r="0.75">
      <stop offset="0%" stop-color="#D9B64A" stop-opacity="0.28"/>
      <stop offset="55%" stop-color="#D9B64A" stop-opacity="0.05"/>
      <stop offset="100%" stop-color="#D9B64A" stop-opacity="0"/>
    </radialGradient>
    <linearGradient id="beam" x1="0" y1="0" x2="1" y2="1">
      <stop offset="0%" stop-color="#F3EFDF" stop-opacity="0.07"/>
      <stop offset="100%" stop-color="#F3EFDF" stop-opacity="0"/>
    </linearGradient>
    <filter id="grain">
      <feTurbulence type="fractalNoise" baseFrequency="0.9" numOctaves="2" stitchTiles="stitch"/>
      <feColorMatrix type="matrix" values="0 0 0 0 1  0 0 0 0 1  0 0 0 0 1  0 0 0 0.05 0"/>
    </filter>
  </defs>
  <rect width="1600" height="900" fill="url(#bg)"/>
  <rect width="1600" height="900" fill="url(#glow)"/>
  <g stroke="#2C6A50" stroke-width="1" opacity="0.28"><line x1="0" y1="0" x2="0" y2="900"/><line x1="80" y1="0" x2="80" y2="900"/><line x1="160" y1="0" x2="160" y2="900"/><line x1="240" y1="0" x2="240" y2="900"/><line x1="320" y1="0" x2="320" y2="900"/><line x1="400" y1="0" x2="400" y2="900"/><line x1="480" y1="0" x2="480" y2="900"/><line x1="560" y1="0" x2="560" y2="900"/><line x1="640" y1="0" x2="640" y2="900"/><line x1="720" y1="0" x2="720" y2="900"/><line x1="800" y1="0" x2="800" y2="900"/><line x1="880" y1="0" x2="880" y2="900"/><line x1="960" y1="0" x2="960" y2="900"/><line x1="1040" y1="0" x2="1040" y2="900"/><line x1="1120" y1="0" x2="1120" y2="900"/><line x1="1200" y1="0" x2="1200" y2="900"/><line x1="1280" y1="0" x2="1280" y2="900"/><line x1="1360" y1="0" x2="1360" y2="900"/><line x1="1440" y1="0" x2="1440" y2="900"/><line x1="1520" y1="0" x2="1520" y2="900"/><line x1="1600" y1="0" x2="1600" y2="900"/><line x1="0" y1="0" x2="1600" y2="0"/><line x1="0" y1="80" x2="1600" y2="80"/><line x1="0" y1="160" x2="1600" y2="160"/><line x1="0" y1="240" x2="1600" y2="240"/><line x1="0" y1="320" x2="1600" y2="320"/><line x1="0" y1="400" x2="1600" y2="400"/><line x1="0" y1="480" x2="1600" y2="480"/><line x1="0" y1="560" x2="1600" y2="560"/><line x1="0" y1="640" x2="1600" y2="640"/><line x1="0" y1="720" x2="1600" y2="720"/><line x1="0" y1="800" x2="1600" y2="800"/><line x1="0" y1="880" x2="1600" y2="880"/></g>
  <polygon points="447,900 907,0 1087,0 627,900" fill="url(#beam)"/>
  <g fill="#D9B64A" opacity="0.5"><circle cx="62" cy="583" r="2.2"/><circle cx="137" cy="671" r="1.1"/><circle cx="340" cy="619" r="2.1"/><circle cx="258" cy="586" r="2.0"/><circle cx="258" cy="580" r="3.3"/><circle cx="211" cy="567" r="2.2"/><circle cx="270" cy="565" r="1.9"/><circle cx="399" cy="528" r="2.2"/><circle cx="426" cy="566" r="2.5"/><circle cx="128" cy="547" r="1.9"/><circle cx="338" cy="647" r="1.2"/><circle cx="239" cy="590" r="3.1"/><circle cx="340" cy="634" r="1.6"/><circle cx="269" cy="580" r="3.2"/><circle cx="98" cy="577" r="1.4"/><circle cx="313" cy="512" r="1.3"/><circle cx="283" cy="572" r="1.7"/><circle cx="46" cy="555" r="2.5"/><circle cx="332" cy="551" r="2.3"/><circle cx="199" cy="477" r="3.2"/><circle cx="234" cy="713" r="1.8"/><circle cx="278" cy="566" r="2.2"/><circle cx="239" cy="498" r="1.3"/><circle cx="248" cy="553" r="2.8"/><circle cx="466" cy="557" r="3.0"/><circle cx="294" cy="568" r="2.2"/><circle cx="326" cy="588" r="2.0"/><circle cx="372" cy="534" r="2.0"/><circle cx="279" cy="579" r="1.5"/><circle cx="260" cy="577" r="1.5"/><circle cx="61" cy="598" r="1.2"/><circle cx="305" cy="543" r="1.3"/><circle cx="432" cy="608" r="2.1"/><circle cx="104" cy="579" r="3.1"/><circle cx="245" cy="599" r="2.5"/><circle cx="230" cy="612" r="3.4"/><circle cx="198" cy="680" r="1.2"/><circle cx="267" cy="579" r="1.4"/><circle cx="190" cy="577" r="3.0"/><circle cx="181" cy="509" r="1.9"/><circle cx="354" cy="680" r="1.0"/><circle cx="366" cy="546" r="2.7"/><circle cx="239" cy="632" r="3.4"/><circle cx="317" cy="470" r="1.7"/><circle cx="300" cy="648" r="2.2"/><circle cx="159" cy="656" r="1.0"/><circle cx="277" cy="496" r="2.3"/><circle cx="90" cy="665" r="2.1"/><circle cx="409" cy="536" r="3.3"/><circle cx="131" cy="648" r="2.6"/><circle cx="281" cy="620" r="2.0"/><circle cx="326" cy="664" r="1.2"/><circle cx="381" cy="605" r="2.8"/><circle cx="79" cy="654" r="3.0"/><circle cx="143" cy="617" r="2.7"/><circle cx="198" cy="683" r="2.5"/><circle cx="143" cy="574" r="2.5"/><circle cx="246" cy="580" r="2.2"/><circle cx="103" cy="616" r="2.0"/><circle cx="457" cy="530" r="1.0"/><circle cx="100" cy="651" r="3.0"/><circle cx="276" cy="676" r="1.3"/><circle cx="245" cy="609" r="3.2"/><circle cx="440" cy="510" r="1.4"/><circle cx="267" cy="572" r="3.3"/><circle cx="303" cy="518" r="1.5"/><circle cx="196" cy="540" r="1.1"/><circle cx="162" cy="667" r="2.7"/><circle cx="323" cy="597" r="3.3"/><circle cx="272" cy="572" r="2.7"/><circle cx="336" cy="610" r="2.4"/><circle cx="348" cy="459" r="1.7"/><circle cx="288" cy="488" r="2.5"/><circle cx="116" cy="589" r="2.2"/><circle cx="314" cy="658" r="3.0"/><circle cx="266" cy="579" r="2.0"/><circle cx="348" cy="596" r="2.5"/><circle cx="108" cy="500" r="3.1"/><circle cx="135" cy="673" r="1.9"/><circle cx="103" cy="522" r="1.2"/><circle cx="289" cy="649" r="2.6"/><circle cx="141" cy="586" r="1.5"/><circle cx="261" cy="644" r="1.1"/><circle cx="152" cy="475" r="2.9"/><circle cx="433" cy="533" r="2.5"/><circle cx="274" cy="586" r="2.7"/><circle cx="267" cy="555" r="1.1"/><circle cx="259" cy="580" r="2.3"/><circle cx="261" cy="516" r="2.5"/><circle cx="187" cy="520" r="2.8"/></g>
  <g transform="translate(871.6428396413103 74) scale(1.33) rotate(-8 200 200)" opacity="0.85">
    
      <g fill="none">
        <path d="M 20 330 C 90 120 310 120 380 330" stroke="#2C6A50" stroke-width="8"/>
        <path d="M 55 330 C 115 165 285 165 345 330" stroke="#2C6A50" stroke-width="4" opacity="0.6"/>
        <path d="M 90 330 C 140 205 260 205 310 330" stroke="#2C6A50" stroke-width="2.5" opacity="0.35"/>
        <line x1="63.199999999999996" y1="345" x2="63.199999999999996" y2="365" stroke="#D9B64A" stroke-width="5"/><line x1="128" y1="345" x2="128" y2="365" stroke="#D9B64A" stroke-width="5"/><line x1="200" y1="345" x2="200" y2="365" stroke="#D9B64A" stroke-width="5"/><line x1="272" y1="345" x2="272" y2="365" stroke="#D9B64A" stroke-width="5"/><line x1="336.8" y1="345" x2="336.8" y2="365" stroke="#D9B64A" stroke-width="5"/>
        <circle cx="200" cy="176" r="10" fill="#D9B64A"/>
      </g>
  </g>
  <rect x="0" y="852" width="1600" height="48" fill="#092619" opacity="0.65"/>
  <rect x="0" y="852" width="420" height="6" fill="#D9B64A"/>
  <rect width="1600" height="900" filter="url(#grain)"/>
</svg>