<svg xmlns="http://www.w3.org/2000/svg" width="1600" height="900" viewBox="0 0 1600 900" role="img" aria-label="cox plate 2026 moves to flemington">
  <defs>
    <linearGradient id="bg" gradientTransform="rotate(28 0.5 0.5)">
      <stop offset="0%" stop-color="#155940"/>
      <stop offset="55%" stop-color="#0E3B2A"/>
      <stop offset="100%" stop-color="#092619"/>
    </linearGradient>
    <radialGradient id="glow" cx="0.63" cy="0.08" r="0.75">
      <stop offset="0%" stop-color="#D9B64A" stop-opacity="0.28"/>
      <stop offset="55%" stop-color="#D9B64A" stop-opacity="0.05"/>
      <stop offset="100%" stop-color="#D9B64A" stop-opacity="0"/>
    </radialGradient>
    <linearGradient id="beam" x1="0" y1="0" x2="1" y2="1">
      <stop offset="0%" stop-color="#F3EFDF" stop-opacity="0.07"/>
      <stop offset="100%" stop-color="#F3EFDF" stop-opacity="0"/>
    </linearGradient>
    <filter id="grain">
      <feTurbulence type="fractalNoise" baseFrequency="0.9" numOctaves="2" stitchTiles="stitch"/>
      <feColorMatrix type="matrix" values="0 0 0 0 1  0 0 0 0 1  0 0 0 0 1  0 0 0 0.05 0"/>
    </filter>
  </defs>
  <rect width="1600" height="900" fill="url(#bg)"/>
  <rect width="1600" height="900" fill="url(#glow)"/>
  <g stroke="#2C6A50" stroke-width="1" opacity="0.28"><line x1="0" y1="0" x2="0" y2="900"/><line x1="80" y1="0" x2="80" y2="900"/><line x1="160" y1="0" x2="160" y2="900"/><line x1="240" y1="0" x2="240" y2="900"/><line x1="320" y1="0" x2="320" y2="900"/><line x1="400" y1="0" x2="400" y2="900"/><line x1="480" y1="0" x2="480" y2="900"/><line x1="560" y1="0" x2="560" y2="900"/><line x1="640" y1="0" x2="640" y2="900"/><line x1="720" y1="0" x2="720" y2="900"/><line x1="800" y1="0" x2="800" y2="900"/><line x1="880" y1="0" x2="880" y2="900"/><line x1="960" y1="0" x2="960" y2="900"/><line x1="1040" y1="0" x2="1040" y2="900"/><line x1="1120" y1="0" x2="1120" y2="900"/><line x1="1200" y1="0" x2="1200" y2="900"/><line x1="1280" y1="0" x2="1280" y2="900"/><line x1="1360" y1="0" x2="1360" y2="900"/><line x1="1440" y1="0" x2="1440" y2="900"/><line x1="1520" y1="0" x2="1520" y2="900"/><line x1="1600" y1="0" x2="1600" y2="900"/><line x1="0" y1="0" x2="1600" y2="0"/><line x1="0" y1="80" x2="1600" y2="80"/><line x1="0" y1="160" x2="1600" y2="160"/><line x1="0" y1="240" x2="1600" y2="240"/><line x1="0" y1="320" x2="1600" y2="320"/><line x1="0" y1="400" x2="1600" y2="400"/><line x1="0" y1="480" x2="1600" y2="480"/><line x1="0" y1="560" x2="1600" y2="560"/><line x1="0" y1="640" x2="1600" y2="640"/><line x1="0" y1="720" x2="1600" y2="720"/><line x1="0" y1="800" x2="1600" y2="800"/><line x1="0" y1="880" x2="1600" y2="880"/></g>
  <polygon points="493,900 953,0 1133,0 673,900" fill="url(#beam)"/>
  <g fill="#D9B64A" opacity="0.5"><circle cx="367" cy="811" r="3.3"/><circle cx="418" cy="785" r="1.3"/><circle cx="321" cy="899" r="1.9"/><circle cx="562" cy="806" r="1.9"/><circle cx="330" cy="770" r="1.9"/><circle cx="408" cy="823" r="2.9"/><circle cx="445" cy="820" r="2.0"/><circle cx="515" cy="764" r="1.8"/><circle cx="622" cy="834" r="1.5"/><circle cx="470" cy="776" r="1.9"/><circle cx="415" cy="836" r="2.0"/><circle cx="279" cy="878" r="1.6"/><circle cx="527" cy="856" r="1.5"/><circle cx="441" cy="804" r="2.4"/><circle cx="443" cy="712" r="1.9"/><circle cx="448" cy="761" r="1.6"/><circle cx="340" cy="749" r="1.4"/><circle cx="369" cy="915" r="2.2"/><circle cx="333" cy="720" r="3.4"/><circle cx="513" cy="771" r="1.3"/><circle cx="425" cy="810" r="1.7"/><circle cx="422" cy="821" r="3.3"/><circle cx="609" cy="769" r="1.4"/><circle cx="279" cy="755" r="3.0"/><circle cx="544" cy="831" r="2.1"/><circle cx="458" cy="769" r="1.2"/><circle cx="465" cy="808" r="2.1"/><circle cx="395" cy="766" r="2.2"/><circle cx="456" cy="658" r="2.7"/><circle cx="319" cy="893" r="3.0"/><circle cx="396" cy="799" r="2.0"/><circle cx="436" cy="799" r="3.1"/><circle cx="349" cy="698" r="2.5"/><circle cx="377" cy="677" r="2.3"/><circle cx="450" cy="884" r="1.4"/><circle cx="516" cy="786" r="1.6"/><circle cx="491" cy="908" r="1.6"/><circle cx="446" cy="819" r="2.7"/><circle cx="402" cy="727" r="2.8"/><circle cx="419" cy="667" r="2.4"/><circle cx="580" cy="813" r="3.0"/><circle cx="409" cy="832" r="1.3"/><circle cx="559" cy="815" r="2.1"/><circle cx="507" cy="808" r="1.6"/><circle cx="379" cy="767" r="1.5"/><circle cx="413" cy="894" r="2.4"/><circle cx="607" cy="715" r="1.2"/><circle cx="493" cy="788" r="2.9"/><circle cx="443" cy="784" r="2.3"/><circle cx="553" cy="704" r="2.3"/><circle cx="438" cy="800" r="1.1"/><circle cx="490" cy="755" r="1.4"/><circle cx="322" cy="756" r="1.3"/><circle cx="240" cy="753" r="2.9"/><circle cx="337" cy="826" r="2.8"/><circle cx="441" cy="858" r="2.1"/><circle cx="386" cy="734" r="1.1"/><circle cx="571" cy="853" r="2.3"/><circle cx="395" cy="771" r="2.8"/><circle cx="568" cy="805" r="2.4"/><circle cx="436" cy="802" r="2.6"/><circle cx="370" cy="887" r="2.6"/><circle cx="453" cy="839" r="1.6"/><circle cx="449" cy="785" r="2.2"/><circle cx="293" cy="753" r="1.3"/><circle cx="275" cy="733" r="2.7"/><circle cx="230" cy="806" r="2.3"/><circle cx="464" cy="852" r="1.0"/><circle cx="300" cy="851" r="1.1"/><circle cx="522" cy="775" r="2.7"/><circle cx="459" cy="790" r="2.0"/><circle cx="326" cy="750" r="2.5"/><circle cx="564" cy="747" r="3.1"/><circle cx="513" cy="785" r="2.7"/><circle cx="433" cy="905" r="2.7"/><circle cx="548" cy="714" r="2.3"/><circle cx="288" cy="772" r="1.6"/><circle cx="645" cy="758" r="2.0"/><circle cx="554" cy="788" r="2.9"/><circle cx="621" cy="768" r="2.9"/><circle cx="520" cy="799" r="1.1"/><circle cx="492" cy="666" r="2.4"/><circle cx="651" cy="731" r="3.3"/><circle cx="390" cy="800" r="1.9"/><circle cx="467" cy="759" r="2.6"/><circle cx="370" cy="812" r="1.3"/><circle cx="612" cy="754" r="3.2"/><circle cx="438" cy="710" r="1.8"/><circle cx="351" cy="729" r="2.2"/><circle cx="658" cy="767" r="1.7"/></g>
  <g transform="translate(792.2297401865944 68) scale(1.11) rotate(-2 200 200)" opacity="0.85">
    
      <g fill="none">
        <path d="M 20 330 C 90 120 310 120 380 330" stroke="#2C6A50" stroke-width="8"/>
        <path d="M 55 330 C 115 165 285 165 345 330" stroke="#2C6A50" stroke-width="4" opacity="0.6"/>
        <path d="M 90 330 C 140 205 260 205 310 330" stroke="#2C6A50" stroke-width="2.5" opacity="0.35"/>
        <line x1="63.199999999999996" y1="345" x2="63.199999999999996" y2="365" stroke="#D9B64A" stroke-width="5"/><line x1="128" y1="345" x2="128" y2="365" stroke="#D9B64A" stroke-width="5"/><line x1="200" y1="345" x2="200" y2="365" stroke="#D9B64A" stroke-width="5"/><line x1="272" y1="345" x2="272" y2="365" stroke="#D9B64A" stroke-width="5"/><line x1="336.8" y1="345" x2="336.8" y2="365" stroke="#D9B64A" stroke-width="5"/>
        <circle cx="200" cy="176" r="10" fill="#D9B64A"/>
      </g>
  </g>
  <rect x="0" y="852" width="1600" height="48" fill="#092619" opacity="0.65"/>
  <rect x="0" y="852" width="420" height="6" fill="#D9B64A"/>
  <rect width="1600" height="900" filter="url(#grain)"/>
</svg>