<svg xmlns="http://www.w3.org/2000/svg" width="1600" height="900" viewBox="0 0 1600 900" role="img" aria-label="memsie stakes day preview caulfield">
  <defs>
    <linearGradient id="bg" gradientTransform="rotate(20 0.5 0.5)">
      <stop offset="0%" stop-color="#155940"/>
      <stop offset="55%" stop-color="#0E3B2A"/>
      <stop offset="100%" stop-color="#092619"/>
    </linearGradient>
    <radialGradient id="glow" cx="0.66" cy="0.14" r="0.75">
      <stop offset="0%" stop-color="#D9B64A" stop-opacity="0.28"/>
      <stop offset="55%" stop-color="#D9B64A" stop-opacity="0.05"/>
      <stop offset="100%" stop-color="#D9B64A" stop-opacity="0"/>
    </radialGradient>
    <linearGradient id="beam" x1="0" y1="0" x2="1" y2="1">
      <stop offset="0%" stop-color="#F3EFDF" stop-opacity="0.07"/>
      <stop offset="100%" stop-color="#F3EFDF" stop-opacity="0"/>
    </linearGradient>
    <filter id="grain">
      <feTurbulence type="fractalNoise" baseFrequency="0.9" numOctaves="2" stitchTiles="stitch"/>
      <feColorMatrix type="matrix" values="0 0 0 0 1  0 0 0 0 1  0 0 0 0 1  0 0 0 0.05 0"/>
    </filter>
  </defs>
  <rect width="1600" height="900" fill="url(#bg)"/>
  <rect width="1600" height="900" fill="url(#glow)"/>
  <g stroke="#2C6A50" stroke-width="1" opacity="0.28"><line x1="0" y1="0" x2="0" y2="900"/><line x1="80" y1="0" x2="80" y2="900"/><line x1="160" y1="0" x2="160" y2="900"/><line x1="240" y1="0" x2="240" y2="900"/><line x1="320" y1="0" x2="320" y2="900"/><line x1="400" y1="0" x2="400" y2="900"/><line x1="480" y1="0" x2="480" y2="900"/><line x1="560" y1="0" x2="560" y2="900"/><line x1="640" y1="0" x2="640" y2="900"/><line x1="720" y1="0" x2="720" y2="900"/><line x1="800" y1="0" x2="800" y2="900"/><line x1="880" y1="0" x2="880" y2="900"/><line x1="960" y1="0" x2="960" y2="900"/><line x1="1040" y1="0" x2="1040" y2="900"/><line x1="1120" y1="0" x2="1120" y2="900"/><line x1="1200" y1="0" x2="1200" y2="900"/><line x1="1280" y1="0" x2="1280" y2="900"/><line x1="1360" y1="0" x2="1360" y2="900"/><line x1="1440" y1="0" x2="1440" y2="900"/><line x1="1520" y1="0" x2="1520" y2="900"/><line x1="1600" y1="0" x2="1600" y2="900"/><line x1="0" y1="0" x2="1600" y2="0"/><line x1="0" y1="80" x2="1600" y2="80"/><line x1="0" y1="160" x2="1600" y2="160"/><line x1="0" y1="240" x2="1600" y2="240"/><line x1="0" y1="320" x2="1600" y2="320"/><line x1="0" y1="400" x2="1600" y2="400"/><line x1="0" y1="480" x2="1600" y2="480"/><line x1="0" y1="560" x2="1600" y2="560"/><line x1="0" y1="640" x2="1600" y2="640"/><line x1="0" y1="720" x2="1600" y2="720"/><line x1="0" y1="800" x2="1600" y2="800"/><line x1="0" y1="880" x2="1600" y2="880"/></g>
  <polygon points="174,900 634,0 814,0 354,900" fill="url(#beam)"/>
  <g fill="#D9B64A" opacity="0.5"><circle cx="22" cy="713" r="1.7"/><circle cx="39" cy="775" r="2.0"/><circle cx="220" cy="724" r="1.1"/><circle cx="288" cy="773" r="1.7"/><circle cx="170" cy="749" r="2.1"/><circle cx="236" cy="731" r="2.2"/><circle cx="229" cy="688" r="1.6"/><circle cx="353" cy="685" r="2.0"/><circle cx="212" cy="733" r="2.9"/><circle cx="253" cy="715" r="2.8"/><circle cx="247" cy="844" r="1.8"/><circle cx="190" cy="730" r="2.5"/><circle cx="313" cy="774" r="3.1"/><circle cx="34" cy="690" r="1.4"/><circle cx="234" cy="727" r="2.0"/><circle cx="85" cy="743" r="2.1"/><circle cx="203" cy="720" r="3.1"/><circle cx="174" cy="714" r="2.3"/><circle cx="132" cy="684" r="3.0"/><circle cx="224" cy="735" r="3.0"/><circle cx="120" cy="702" r="1.2"/><circle cx="217" cy="729" r="1.3"/><circle cx="210" cy="724" r="2.3"/><circle cx="313" cy="729" r="3.0"/><circle cx="201" cy="615" r="1.2"/><circle cx="204" cy="608" r="1.7"/><circle cx="343" cy="790" r="1.4"/><circle cx="314" cy="650" r="1.8"/><circle cx="248" cy="710" r="2.0"/><circle cx="235" cy="662" r="1.4"/><circle cx="208" cy="729" r="3.3"/><circle cx="175" cy="712" r="2.9"/><circle cx="-9" cy="757" r="2.4"/><circle cx="208" cy="719" r="2.5"/><circle cx="344" cy="727" r="1.1"/><circle cx="48" cy="754" r="2.9"/><circle cx="-4" cy="767" r="3.1"/><circle cx="42" cy="699" r="3.0"/><circle cx="206" cy="674" r="2.4"/><circle cx="266" cy="781" r="1.4"/><circle cx="26" cy="653" r="1.4"/><circle cx="376" cy="774" r="2.6"/><circle cx="281" cy="842" r="2.7"/><circle cx="251" cy="721" r="1.4"/><circle cx="212" cy="590" r="2.7"/><circle cx="217" cy="720" r="1.0"/><circle cx="223" cy="718" r="2.9"/><circle cx="194" cy="656" r="1.1"/><circle cx="216" cy="709" r="3.1"/><circle cx="260" cy="718" r="3.0"/><circle cx="177" cy="596" r="3.2"/><circle cx="346" cy="719" r="2.5"/><circle cx="173" cy="852" r="1.2"/><circle cx="134" cy="651" r="2.8"/><circle cx="270" cy="671" r="3.1"/><circle cx="21" cy="739" r="2.0"/><circle cx="225" cy="738" r="1.6"/><circle cx="56" cy="684" r="3.1"/><circle cx="208" cy="710" r="2.7"/><circle cx="369" cy="769" r="3.0"/><circle cx="119" cy="819" r="2.1"/><circle cx="263" cy="687" r="2.6"/><circle cx="187" cy="643" r="2.8"/><circle cx="217" cy="736" r="2.7"/><circle cx="394" cy="780" r="2.8"/><circle cx="148" cy="649" r="1.0"/><circle cx="250" cy="621" r="2.7"/><circle cx="228" cy="627" r="2.3"/><circle cx="352" cy="755" r="2.0"/><circle cx="35" cy="690" r="2.2"/><circle cx="270" cy="751" r="2.1"/><circle cx="200" cy="720" r="1.6"/><circle cx="107" cy="703" r="3.0"/><circle cx="317" cy="782" r="3.4"/><circle cx="236" cy="695" r="2.4"/><circle cx="188" cy="726" r="2.5"/><circle cx="202" cy="740" r="2.9"/><circle cx="263" cy="749" r="2.6"/><circle cx="223" cy="762" r="1.6"/><circle cx="47" cy="666" r="1.0"/><circle cx="372" cy="736" r="2.3"/><circle cx="214" cy="732" r="1.2"/><circle cx="199" cy="719" r="2.8"/><circle cx="283" cy="834" r="2.4"/><circle cx="56" cy="755" r="3.3"/><circle cx="189" cy="754" r="2.7"/><circle cx="8" cy="757" r="2.2"/><circle cx="204" cy="715" r="2.0"/><circle cx="73" cy="666" r="1.8"/><circle cx="-3" cy="753" r="2.7"/></g>
  <g transform="translate(793.5761007717811 128) scale(1.29) rotate(3 200 200)" opacity="0.85">
    
      <g fill="none">
        <path d="M 20 330 C 90 120 310 120 380 330" stroke="#2C6A50" stroke-width="8"/>
        <path d="M 55 330 C 115 165 285 165 345 330" stroke="#2C6A50" stroke-width="4" opacity="0.6"/>
        <path d="M 90 330 C 140 205 260 205 310 330" stroke="#2C6A50" stroke-width="2.5" opacity="0.35"/>
        <line x1="63.199999999999996" y1="345" x2="63.199999999999996" y2="365" stroke="#D9B64A" stroke-width="5"/><line x1="128" y1="345" x2="128" y2="365" stroke="#D9B64A" stroke-width="5"/><line x1="200" y1="345" x2="200" y2="365" stroke="#D9B64A" stroke-width="5"/><line x1="272" y1="345" x2="272" y2="365" stroke="#D9B64A" stroke-width="5"/><line x1="336.8" y1="345" x2="336.8" y2="365" stroke="#D9B64A" stroke-width="5"/>
        <circle cx="200" cy="176" r="10" fill="#D9B64A"/>
      </g>
  </g>
  <rect x="0" y="852" width="1600" height="48" fill="#092619" opacity="0.65"/>
  <rect x="0" y="852" width="420" height="6" fill="#D9B64A"/>
  <rect width="1600" height="900" filter="url(#grain)"/>
</svg>