<svg xmlns="http://www.w3.org/2000/svg" width="1600" height="900" viewBox="0 0 1600 900" role="img" aria-label="spicy martini road to the everest">
  <defs>
    <linearGradient id="bg" gradientTransform="rotate(117 0.5 0.5)">
      <stop offset="0%" stop-color="#155940"/>
      <stop offset="55%" stop-color="#0E3B2A"/>
      <stop offset="100%" stop-color="#092619"/>
    </linearGradient>
    <radialGradient id="glow" cx="0.60" cy="0.20" r="0.75">
      <stop offset="0%" stop-color="#D9B64A" stop-opacity="0.28"/>
      <stop offset="55%" stop-color="#D9B64A" stop-opacity="0.05"/>
      <stop offset="100%" stop-color="#D9B64A" stop-opacity="0"/>
    </radialGradient>
    <linearGradient id="beam" x1="0" y1="0" x2="1" y2="1">
      <stop offset="0%" stop-color="#F3EFDF" stop-opacity="0.07"/>
      <stop offset="100%" stop-color="#F3EFDF" stop-opacity="0"/>
    </linearGradient>
    <filter id="grain">
      <feTurbulence type="fractalNoise" baseFrequency="0.9" numOctaves="2" stitchTiles="stitch"/>
      <feColorMatrix type="matrix" values="0 0 0 0 1  0 0 0 0 1  0 0 0 0 1  0 0 0 0.05 0"/>
    </filter>
  </defs>
  <rect width="1600" height="900" fill="url(#bg)"/>
  <rect width="1600" height="900" fill="url(#glow)"/>
  <g stroke="#2C6A50" stroke-width="1" opacity="0.28"><line x1="0" y1="0" x2="0" y2="900"/><line x1="80" y1="0" x2="80" y2="900"/><line x1="160" y1="0" x2="160" y2="900"/><line x1="240" y1="0" x2="240" y2="900"/><line x1="320" y1="0" x2="320" y2="900"/><line x1="400" y1="0" x2="400" y2="900"/><line x1="480" y1="0" x2="480" y2="900"/><line x1="560" y1="0" x2="560" y2="900"/><line x1="640" y1="0" x2="640" y2="900"/><line x1="720" y1="0" x2="720" y2="900"/><line x1="800" y1="0" x2="800" y2="900"/><line x1="880" y1="0" x2="880" y2="900"/><line x1="960" y1="0" x2="960" y2="900"/><line x1="1040" y1="0" x2="1040" y2="900"/><line x1="1120" y1="0" x2="1120" y2="900"/><line x1="1200" y1="0" x2="1200" y2="900"/><line x1="1280" y1="0" x2="1280" y2="900"/><line x1="1360" y1="0" x2="1360" y2="900"/><line x1="1440" y1="0" x2="1440" y2="900"/><line x1="1520" y1="0" x2="1520" y2="900"/><line x1="1600" y1="0" x2="1600" y2="900"/><line x1="0" y1="0" x2="1600" y2="0"/><line x1="0" y1="80" x2="1600" y2="80"/><line x1="0" y1="160" x2="1600" y2="160"/><line x1="0" y1="240" x2="1600" y2="240"/><line x1="0" y1="320" x2="1600" y2="320"/><line x1="0" y1="400" x2="1600" y2="400"/><line x1="0" y1="480" x2="1600" y2="480"/><line x1="0" y1="560" x2="1600" y2="560"/><line x1="0" y1="640" x2="1600" y2="640"/><line x1="0" y1="720" x2="1600" y2="720"/><line x1="0" y1="800" x2="1600" y2="800"/><line x1="0" y1="880" x2="1600" y2="880"/></g>
  <polygon points="303,900 763,0 943,0 483,900" fill="url(#beam)"/>
  <g fill="#D9B64A" opacity="0.5"><circle cx="405" cy="574" r="1.8"/><circle cx="318" cy="586" r="1.4"/><circle cx="330" cy="661" r="1.5"/><circle cx="286" cy="706" r="1.2"/><circle cx="224" cy="679" r="2.6"/><circle cx="248" cy="585" r="1.5"/><circle cx="309" cy="672" r="2.6"/><circle cx="423" cy="629" r="1.2"/><circle cx="297" cy="691" r="3.2"/><circle cx="258" cy="718" r="3.1"/><circle cx="183" cy="540" r="2.6"/><circle cx="237" cy="662" r="2.0"/><circle cx="250" cy="747" r="2.1"/><circle cx="338" cy="544" r="3.3"/><circle cx="130" cy="661" r="2.4"/><circle cx="220" cy="549" r="3.4"/><circle cx="223" cy="565" r="2.7"/><circle cx="408" cy="599" r="1.7"/><circle cx="260" cy="655" r="1.7"/><circle cx="261" cy="580" r="2.0"/><circle cx="276" cy="548" r="1.2"/><circle cx="323" cy="784" r="2.8"/><circle cx="328" cy="698" r="1.2"/><circle cx="263" cy="646" r="3.1"/><circle cx="267" cy="674" r="1.0"/><circle cx="356" cy="646" r="3.2"/><circle cx="348" cy="604" r="1.5"/><circle cx="327" cy="727" r="2.3"/><circle cx="126" cy="721" r="1.6"/><circle cx="269" cy="655" r="2.5"/><circle cx="286" cy="642" r="2.8"/><circle cx="326" cy="710" r="3.2"/><circle cx="291" cy="599" r="2.8"/><circle cx="334" cy="711" r="1.2"/><circle cx="323" cy="633" r="1.3"/><circle cx="377" cy="583" r="1.4"/><circle cx="220" cy="667" r="1.3"/><circle cx="212" cy="654" r="1.3"/><circle cx="288" cy="696" r="1.1"/><circle cx="190" cy="755" r="1.9"/><circle cx="273" cy="624" r="2.5"/><circle cx="227" cy="629" r="1.8"/><circle cx="165" cy="559" r="2.4"/><circle cx="287" cy="735" r="1.7"/><circle cx="259" cy="660" r="1.7"/><circle cx="278" cy="633" r="2.5"/><circle cx="195" cy="724" r="3.3"/><circle cx="206" cy="611" r="2.7"/><circle cx="210" cy="659" r="2.4"/><circle cx="389" cy="696" r="3.1"/><circle cx="257" cy="657" r="2.5"/><circle cx="151" cy="565" r="2.0"/><circle cx="236" cy="668" r="1.2"/><circle cx="279" cy="580" r="2.5"/><circle cx="71" cy="672" r="2.3"/><circle cx="110" cy="614" r="1.8"/><circle cx="245" cy="665" r="1.3"/><circle cx="287" cy="696" r="1.3"/><circle cx="99" cy="665" r="1.2"/><circle cx="254" cy="644" r="1.9"/><circle cx="434" cy="586" r="1.1"/><circle cx="400" cy="737" r="2.1"/><circle cx="200" cy="688" r="1.1"/><circle cx="234" cy="668" r="2.1"/><circle cx="274" cy="655" r="1.2"/><circle cx="241" cy="638" r="2.6"/><circle cx="217" cy="678" r="1.2"/><circle cx="316" cy="580" r="3.1"/><circle cx="393" cy="634" r="3.2"/><circle cx="470" cy="644" r="3.0"/><circle cx="408" cy="694" r="3.1"/><circle cx="156" cy="706" r="1.0"/><circle cx="217" cy="619" r="3.0"/><circle cx="122" cy="721" r="3.3"/><circle cx="237" cy="598" r="1.8"/><circle cx="453" cy="693" r="2.2"/><circle cx="473" cy="635" r="3.4"/><circle cx="133" cy="671" r="2.7"/><circle cx="133" cy="683" r="1.4"/><circle cx="464" cy="698" r="3.1"/><circle cx="323" cy="571" r="2.5"/><circle cx="180" cy="698" r="3.3"/><circle cx="318" cy="643" r="2.8"/><circle cx="253" cy="681" r="1.5"/><circle cx="205" cy="646" r="3.3"/><circle cx="286" cy="567" r="2.6"/><circle cx="388" cy="701" r="2.8"/><circle cx="231" cy="579" r="2.2"/><circle cx="215" cy="657" r="1.5"/><circle cx="215" cy="641" r="1.9"/></g>
  <g transform="translate(729.145992373582 179) scale(1.12) rotate(1 200 200)" opacity="0.85">
    
      <g fill="none">
        <path d="M 20 330 C 90 120 310 120 380 330" stroke="#2C6A50" stroke-width="8"/>
        <path d="M 55 330 C 115 165 285 165 345 330" stroke="#2C6A50" stroke-width="4" opacity="0.6"/>
        <path d="M 90 330 C 140 205 260 205 310 330" stroke="#2C6A50" stroke-width="2.5" opacity="0.35"/>
        <line x1="63.199999999999996" y1="345" x2="63.199999999999996" y2="365" stroke="#D9B64A" stroke-width="5"/><line x1="128" y1="345" x2="128" y2="365" stroke="#D9B64A" stroke-width="5"/><line x1="200" y1="345" x2="200" y2="365" stroke="#D9B64A" stroke-width="5"/><line x1="272" y1="345" x2="272" y2="365" stroke="#D9B64A" stroke-width="5"/><line x1="336.8" y1="345" x2="336.8" y2="365" stroke="#D9B64A" stroke-width="5"/>
        <circle cx="200" cy="176" r="10" fill="#D9B64A"/>
      </g>
  </g>
  <rect x="0" y="852" width="1600" height="48" fill="#092619" opacity="0.65"/>
  <rect x="0" y="852" width="420" height="6" fill="#D9B64A"/>
  <rect width="1600" height="900" filter="url(#grain)"/>
</svg>