<svg xmlns="http://www.w3.org/2000/svg" width="1600" height="900" viewBox="0 0 1600 900" role="img" aria-label="ufc 331 van pantoja 2 preview">
  <defs>
    <linearGradient id="bg" gradientTransform="rotate(63 0.5 0.5)">
      <stop offset="0%" stop-color="#1D1F26"/>
      <stop offset="55%" stop-color="#111216"/>
      <stop offset="100%" stop-color="#08090B"/>
    </linearGradient>
    <radialGradient id="glow" cx="0.70" cy="0.15" r="0.75">
      <stop offset="0%" stop-color="#E8B71A" stop-opacity="0.28"/>
      <stop offset="55%" stop-color="#E8B71A" stop-opacity="0.05"/>
      <stop offset="100%" stop-color="#E8B71A" stop-opacity="0"/>
    </radialGradient>
    <linearGradient id="beam" x1="0" y1="0" x2="1" y2="1">
      <stop offset="0%" stop-color="#E8442A" stop-opacity="0.07"/>
      <stop offset="100%" stop-color="#E8442A" stop-opacity="0"/>
    </linearGradient>
    <filter id="grain">
      <feTurbulence type="fractalNoise" baseFrequency="0.9" numOctaves="2" stitchTiles="stitch"/>
      <feColorMatrix type="matrix" values="0 0 0 0 1  0 0 0 0 1  0 0 0 0 1  0 0 0 0.05 0"/>
    </filter>
  </defs>
  <rect width="1600" height="900" fill="url(#bg)"/>
  <rect width="1600" height="900" fill="url(#glow)"/>
  <g stroke="#2E3038" stroke-width="1" opacity="0.28"><line x1="0" y1="0" x2="0" y2="900"/><line x1="80" y1="0" x2="80" y2="900"/><line x1="160" y1="0" x2="160" y2="900"/><line x1="240" y1="0" x2="240" y2="900"/><line x1="320" y1="0" x2="320" y2="900"/><line x1="400" y1="0" x2="400" y2="900"/><line x1="480" y1="0" x2="480" y2="900"/><line x1="560" y1="0" x2="560" y2="900"/><line x1="640" y1="0" x2="640" y2="900"/><line x1="720" y1="0" x2="720" y2="900"/><line x1="800" y1="0" x2="800" y2="900"/><line x1="880" y1="0" x2="880" y2="900"/><line x1="960" y1="0" x2="960" y2="900"/><line x1="1040" y1="0" x2="1040" y2="900"/><line x1="1120" y1="0" x2="1120" y2="900"/><line x1="1200" y1="0" x2="1200" y2="900"/><line x1="1280" y1="0" x2="1280" y2="900"/><line x1="1360" y1="0" x2="1360" y2="900"/><line x1="1440" y1="0" x2="1440" y2="900"/><line x1="1520" y1="0" x2="1520" y2="900"/><line x1="1600" y1="0" x2="1600" y2="900"/><line x1="0" y1="0" x2="1600" y2="0"/><line x1="0" y1="80" x2="1600" y2="80"/><line x1="0" y1="160" x2="1600" y2="160"/><line x1="0" y1="240" x2="1600" y2="240"/><line x1="0" y1="320" x2="1600" y2="320"/><line x1="0" y1="400" x2="1600" y2="400"/><line x1="0" y1="480" x2="1600" y2="480"/><line x1="0" y1="560" x2="1600" y2="560"/><line x1="0" y1="640" x2="1600" y2="640"/><line x1="0" y1="720" x2="1600" y2="720"/><line x1="0" y1="800" x2="1600" y2="800"/><line x1="0" y1="880" x2="1600" y2="880"/></g>
  <polygon points="169,900 629,0 809,0 349,900" fill="url(#beam)"/>
  <g fill="#E8B71A" opacity="0.5"><circle cx="457" cy="628" r="2.5"/><circle cx="467" cy="542" r="1.5"/><circle cx="408" cy="648" r="1.7"/><circle cx="363" cy="754" r="2.2"/><circle cx="374" cy="787" r="2.1"/><circle cx="383" cy="651" r="1.4"/><circle cx="306" cy="651" r="1.9"/><circle cx="392" cy="680" r="3.3"/><circle cx="509" cy="673" r="2.0"/><circle cx="262" cy="753" r="2.9"/><circle cx="410" cy="685" r="3.3"/><circle cx="439" cy="645" r="2.4"/><circle cx="408" cy="563" r="1.2"/><circle cx="484" cy="675" r="2.1"/><circle cx="208" cy="611" r="1.2"/><circle cx="518" cy="715" r="2.7"/><circle cx="514" cy="634" r="3.2"/><circle cx="494" cy="536" r="2.7"/><circle cx="403" cy="573" r="3.3"/><circle cx="225" cy="654" r="1.2"/><circle cx="509" cy="639" r="3.2"/><circle cx="346" cy="739" r="1.2"/><circle cx="384" cy="645" r="1.8"/><circle cx="305" cy="749" r="2.9"/><circle cx="378" cy="651" r="2.8"/><circle cx="283" cy="588" r="1.1"/><circle cx="388" cy="655" r="1.3"/><circle cx="273" cy="613" r="1.0"/><circle cx="565" cy="585" r="1.5"/><circle cx="451" cy="713" r="3.3"/><circle cx="285" cy="750" r="2.6"/><circle cx="382" cy="645" r="1.2"/><circle cx="385" cy="675" r="2.4"/><circle cx="178" cy="605" r="2.5"/><circle cx="371" cy="570" r="1.6"/><circle cx="347" cy="697" r="2.4"/><circle cx="262" cy="621" r="1.9"/><circle cx="399" cy="762" r="1.6"/><circle cx="427" cy="593" r="2.0"/><circle cx="359" cy="648" r="1.2"/><circle cx="437" cy="533" r="2.7"/><circle cx="411" cy="653" r="1.3"/><circle cx="205" cy="584" r="1.2"/><circle cx="574" cy="647" r="3.2"/><circle cx="516" cy="593" r="3.2"/><circle cx="399" cy="657" r="2.7"/><circle cx="319" cy="705" r="2.4"/><circle cx="317" cy="645" r="2.2"/><circle cx="243" cy="690" r="1.2"/><circle cx="209" cy="601" r="3.0"/><circle cx="503" cy="536" r="3.2"/><circle cx="229" cy="581" r="3.1"/><circle cx="337" cy="605" r="2.6"/><circle cx="388" cy="596" r="2.5"/><circle cx="554" cy="570" r="2.1"/><circle cx="223" cy="683" r="1.1"/><circle cx="237" cy="688" r="2.0"/><circle cx="556" cy="631" r="3.0"/><circle cx="456" cy="593" r="2.9"/><circle cx="525" cy="552" r="1.4"/><circle cx="408" cy="648" r="1.5"/><circle cx="336" cy="577" r="3.1"/><circle cx="388" cy="586" r="1.9"/><circle cx="524" cy="705" r="2.2"/><circle cx="428" cy="698" r="1.3"/><circle cx="302" cy="583" r="1.7"/><circle cx="384" cy="679" r="2.8"/><circle cx="363" cy="603" r="2.1"/><circle cx="311" cy="743" r="1.8"/><circle cx="431" cy="610" r="3.3"/><circle cx="357" cy="515" r="1.9"/><circle cx="442" cy="614" r="2.8"/><circle cx="402" cy="714" r="3.4"/><circle cx="274" cy="696" r="2.8"/><circle cx="333" cy="586" r="3.3"/><circle cx="362" cy="744" r="2.3"/><circle cx="503" cy="600" r="3.1"/><circle cx="368" cy="600" r="1.4"/><circle cx="375" cy="637" r="1.4"/><circle cx="358" cy="641" r="2.1"/><circle cx="530" cy="732" r="2.4"/><circle cx="362" cy="650" r="3.3"/><circle cx="294" cy="557" r="3.4"/><circle cx="253" cy="734" r="2.2"/><circle cx="467" cy="585" r="1.4"/><circle cx="390" cy="572" r="1.4"/><circle cx="202" cy="647" r="2.9"/><circle cx="377" cy="578" r="2.3"/><circle cx="368" cy="749" r="2.6"/><circle cx="314" cy="632" r="2.9"/></g>
  <g transform="translate(842.2314835526049 133) scale(1.39) rotate(-1 200 200)" opacity="0.85">
    
        <polygon points="361.6789181894752,266.96960066389073 266.96960066389073,361.6789181894752 133.0303993361093,361.6789181894752 38.32108181052482,266.96960066389073 38.32108181052479,133.03039933610933 133.03039933610918,38.32108181052487 266.96960066389073,38.321081810524845 361.6789181894751,133.03039933610918" fill="none" stroke="#2E3038" stroke-width="8"/>
        <polygon points="310.8655439013544,245.92201188381077 245.9220118838108,310.8655439013544 154.07798811618923,310.8655439013544 89.13445609864559,245.9220118838108 89.13445609864557,154.07798811618923 154.07798811618915,89.13445609864561 245.9220118838108,89.1344560986456 310.8655439013544,154.07798811618915" fill="none" stroke="#2E3038" stroke-width="3" opacity="0.55"/>
        <line x1="200" y1="80" x2="200" y2="320" stroke="#E8B71A" stroke-width="4" opacity="0.8"/>
        <line x1="80" y1="200" x2="320" y2="200" stroke="#E8B71A" stroke-width="4" opacity="0.8"/>
  </g>
  <rect x="0" y="852" width="1600" height="48" fill="#08090B" opacity="0.65"/>
  <rect x="0" y="852" width="420" height="6" fill="#E8B71A"/>
  <rect width="1600" height="900" filter="url(#grain)"/>
</svg>